<?xml version="1.0" encoding="utf-8"?>
<!-- Generator: Adobe Illustrator 17.0.0, SVG Export Plug-In . SVG Version: 6.00 Build 0)  -->
<!DOCTYPE svg PUBLIC "-//W3C//DTD SVG 1.1//EN" "http://www.w3.org/Graphics/SVG/1.1/DTD/svg11.dtd">
<svg version="1.1" id="Layer_1" xmlns="http://www.w3.org/2000/svg" xmlns:xlink="http://www.w3.org/1999/xlink" x="0px" y="0px"
	 width="380px" height="80px" viewBox="0 0 380 80" enable-background="new 0 0 380 80" xml:space="preserve">
<g>
	<g>
		<path fill="#010101" d="M294.242,17.067h18.628c4.229,0,7.524,3.463,5.819,7.69l-3.364,8.416c-1.693,4.226-4.252,7.69-8.477,7.69
			h-22.141c-4.229,0-6.306-3.463-4.614-7.69l3.372-8.416C285.16,20.52,290.015,17.067,294.242,17.067L294.242,17.067z
			 M301.274,22.273c-1.812-0.079-4.529,2.092-5.555,4.327c-0.931,2.027-1.863,4.055-2.794,6.083
			c-1.027,2.234,0.062,4.076,1.856,4.326c2.581,0.361,5.161,0.361,7.742,0c2.374-0.331,5.293-7.69,6.675-10.087
			c1.199-2.082,1.19-4.248-0.622-4.327C306.141,22.487,303.707,22.38,301.274,22.273L301.274,22.273z M260.004,20.677
			c-1.325,2.609-2.651,5.219-3.976,7.829c3.886,0,7.772,0,11.658,0c2.055-1.732,3.308-3.42,3.155-5.028
			c-0.299-3.141-2.991-2.801-5.266-2.801C263.716,20.677,261.86,20.677,260.004,20.677L260.004,20.677z M247.252,17.517
			c-3.793,7.876-7.587,15.752-11.38,23.628c4.846,0,9.69,0,14.535,0c1.554-3.297,3.107-6.594,4.661-9.891
			c0.823,3.296,1.645,6.593,2.468,9.891c4.707,0,9.415,0,14.123,0c0-3.572,0-7.143,0-10.714c7.541,0.55,10.831-10.898,4.113-12.913
			C266.264,17.517,256.758,17.517,247.252,17.517L247.252,17.517z M207.238,17.334c4.868,0,9.735,0,14.603,0
			c-2.575,4.948-5.15,9.896-7.724,14.844c-1.609,6.206,10.539,6.91,13.277,0c2.453-4.908,4.906-9.816,7.36-14.723
			c2.618,0,5.235,0,7.853,0c-3.059,6.356-6.12,12.712-9.18,19.068c-1.645,2.474-4.679,4.395-8.386,4.458
			c-3.794,0.064-13.511,0.157-19.631-0.047c-4.5-0.15-5.876-1.866-6.379-4.411c0.002-3.09,1.203-4.871,2.565-7.656
			C203.477,25.022,205.358,21.178,207.238,17.334L207.238,17.334z M192.992,39.811c0.511-1.17,1.022-2.341,1.533-3.511
			c-5.509,0-11.368,0-16.877,0c-2.611-0.68-1.849-2.911-1.042-5.458c6.984,0,13.613,0.094,20.596,0.094
			c0.582-1.283,1.164-2.566,1.746-3.848c-6.982,0-13.966,0-20.95,0c0.378-1.286,1.067-2.34,2.031-3.187
			c3.228-2.837,7.531-2.644,11.512-2.644c3.361,0,6.723,0,10.084,0c0.642-1.439,1.283-2.877,1.925-4.316c-7.527,0-15.519,0-23.046,0
			c-2.437,0.066-4.658,0.461-6.683,1.146c-7.233,2.448-11.174,7.873-12.872,15.06c-0.981,4.156,0.605,6.806,5.294,6.663
			C175.353,39.811,183.882,39.811,192.992,39.811L192.992,39.811z M62.522,27.459c0.892,0,1.784,0,2.676,0
			c9.442-8.668,24.486-18.038,43.726-17.763c5.946,0.084,14.698,0.287,18.719,5.449c3.742,4.804,3.354,12.478-2.539,16.645
			c-31.153,0-61.896,0-93.048,0c0.686,1.374,1.373,2.749,2.058,4.125c2.06,0,4.119,0,6.179,0c0.891,1.374,1.782,2.749,2.672,4.124
			c2.197,0,4.394,0,6.591,0c0.754,1.306,1.508,2.612,2.261,3.918c32.113,0,64.226,0,96.339,0c2.816-6.465,4.066-12.293,3.621-18.122
			C150.365,7.341,131.514,2.452,116.17,2.688c-6.158,0.094-12.976,1.086-20.711,3.324C81.622,10.935,71.415,18.687,62.522,27.459z"
			/>
		<path fill="#010101" d="M334.283,46.978c-1.052,2.067-2.1,4.133-3.15,6.201c3.079,0,6.152,0,9.231,0
			c1.626-1.374,2.619-2.71,2.497-3.983c-0.238-2.488-2.368-2.219-4.168-2.219C337.224,46.978,335.755,46.978,334.283,46.978
			L334.283,46.978z M324.185,44.478c7.526,0,15.054,0,22.583,0c5.314,1.594,2.71,10.658-3.259,10.224c0,2.829,0,5.654,0.004,8.482
			c-3.733,0-7.461,0-11.184,0c-0.655-2.611-1.305-5.22-1.959-7.829c-1.226,2.609-2.458,5.219-3.689,7.829c-3.834,0-7.668,0-11.507,0
			C318.179,56.949,321.185,50.715,324.185,44.478L324.185,44.478z M290.504,62.916c6.23-0.003,12.46-0.005,18.691-0.007
			c2.662-0.697,4.262-2.031,4.796-4.004c0.886-1.965,1.772-3.931,2.658-5.896c1.335-2.96,3.454-5.78-0.677-7.647
			c-2.313-1.046-4.417-0.874-6.895-0.874c-2.611,0-5.223,0-7.834,0c-2.281,0-4.307-0.157-6.45,0.782
			c-2.999,1.318-3.562,2.581-4.823,5.403c-0.557,1.247-1.114,2.494-1.672,3.742c-1.061,2.376-2.352,4.104-0.915,6.66
			C287.981,62.138,288.976,62.818,290.504,62.916L290.504,62.916z M298.682,53.274c1.174-2.58,3.329-5.299,5.336-5.214
			c1.724,0,4.171,0,5.896,0c1.217,0.421,1.664,1.159,1.343,2.212c-1.082,2.204-2.801,7.309-4.47,8.646
			c-1.027,0.823-2.196,0.669-3.591,0.669c-0.982,0-1.515,0-2.5,0.001c-1.009,0-1.866-0.169-2.455-0.609
			C296.546,57.715,297.726,55.376,298.682,53.274L298.682,53.274z M185.281,63.23c2.771-6.14,5.543-12.28,8.315-18.421
			c4.53,0,9.061,0,13.591,0c1.385,1.922,2.77,3.844,4.156,5.767c2.807-2.065,5.601-4.134,9.274-5.767c2.612,0,5.223,0,7.835,0
			c-2.559,6.141-5.117,12.281-7.675,18.421c-2.078,0-4.157,0-6.235,0c1.545-3.737,3.091-7.475,4.637-11.213
			c-4.264,1.336-7.941,5.02-11.353,9.771c-0.72-4.699-2.106-8.33-4.957-9.611c-1.546,3.738-3.091,7.476-4.637,11.213
			C193.915,63.337,189.598,63.283,185.281,63.23L185.281,63.23z M229.587,62.916c6.229-0.003,12.46-0.005,18.69-0.007
			c2.662-0.697,4.262-2.031,4.796-4.004c0.885-1.965,1.772-3.931,2.658-5.896c1.336-2.96,3.454-5.78-0.677-7.647
			c-2.313-1.046-4.417-0.874-6.895-0.874c-2.611,0-5.223,0-7.834,0c-2.281,0-4.307-0.157-6.45,0.782
			c-2.999,1.318-3.562,2.581-4.823,5.403c-0.557,1.247-1.115,2.494-1.672,3.742c-1.061,2.376-2.352,4.104-0.916,6.66
			C227.064,62.138,228.059,62.818,229.587,62.916L229.587,62.916z M237.764,53.274c1.174-2.58,3.329-5.299,5.336-5.214
			c1.724,0,4.171,0,5.896,0c1.217,0.421,1.664,1.159,1.344,2.212c-1.082,2.204-2.802,7.309-4.47,8.646
			c-1.027,0.823-2.196,0.669-3.591,0.669c-0.982,0-1.515,0-2.5,0.001c-1.009,0-1.866-0.169-2.455-0.609
			C235.628,57.715,236.808,55.376,237.764,53.274L237.764,53.274z M262.652,44.891h26.463l-1.805,4.006h-7.26l-6.147,14.022h-11.761
			l6.147-14.022h-7.441L262.652,44.891L262.652,44.891z M79.814,47.67c-8.851,0-17.703,0-26.555,0
			c-0.091,10.64,3.282,20.323,16.927,24.91c17.718,5.359,33.907,4.495,47.71-2.018c14.295-7.047,22.149-14.953,28.202-23.098
			c-0.961,0-1.036,0-1.996,0c-9.793,10.541-20.439,17.676-33.26,20.94c-9.496,2.418-21.985,3.523-30.571-2.099
			c-4.953-3.243-7.425-7.882-4.449-13.585C76.688,51.058,78.009,49.385,79.814,47.67z"/>
	</g>
	<g>
		<path fill="#085DAA" d="M294.242,17.067h18.628c4.229,0,7.524,3.463,5.819,7.69l-3.364,8.416c-1.693,4.226-4.252,7.69-8.477,7.69
			h-22.141c-4.229,0-6.306-3.463-4.614-7.69l3.372-8.416C285.16,20.52,290.015,17.067,294.242,17.067L294.242,17.067z
			 M301.274,22.273c-1.812-0.079-4.529,2.092-5.555,4.327c-0.931,2.027-1.863,4.055-2.794,6.083
			c-1.027,2.234,0.062,4.076,1.856,4.326c2.581,0.361,5.161,0.361,7.742,0c2.374-0.331,5.293-7.69,6.675-10.087
			c1.199-2.082,1.19-4.248-0.622-4.327C306.141,22.487,303.707,22.38,301.274,22.273L301.274,22.273z M260.004,20.677
			c-1.325,2.609-2.651,5.219-3.976,7.829c3.886,0,7.772,0,11.658,0c2.055-1.732,3.308-3.42,3.155-5.028
			c-0.299-3.141-2.991-2.801-5.266-2.801C263.716,20.677,261.86,20.677,260.004,20.677L260.004,20.677z M247.252,17.517
			c-3.793,7.876-7.587,15.752-11.38,23.628c4.846,0,9.69,0,14.535,0c1.554-3.297,3.107-6.594,4.661-9.891
			c0.823,3.296,1.645,6.593,2.468,9.891c4.707,0,9.415,0,14.123,0c0-3.572,0-7.143,0-10.714c7.541,0.55,10.831-10.898,4.113-12.913
			C266.264,17.517,256.758,17.517,247.252,17.517L247.252,17.517z M207.238,17.334c4.868,0,9.735,0,14.603,0
			c-2.575,4.948-5.15,9.896-7.724,14.844c-1.609,6.206,10.539,6.91,13.277,0c2.453-4.908,4.906-9.816,7.36-14.723
			c2.618,0,5.235,0,7.853,0c-3.059,6.356-6.12,12.712-9.18,19.068c-1.645,2.474-4.679,4.395-8.386,4.458
			c-3.794,0.064-13.511,0.157-19.631-0.047c-4.5-0.15-5.876-1.866-6.379-4.411c0.002-3.09,1.203-4.871,2.565-7.656
			C203.477,25.022,205.358,21.178,207.238,17.334L207.238,17.334z M192.992,39.811c0.511-1.17,1.022-2.341,1.533-3.511
			c-5.509,0-11.368,0-16.877,0c-2.611-0.68-1.849-2.911-1.042-5.458c6.984,0,13.613,0.094,20.596,0.094
			c0.582-1.283,1.164-2.566,1.746-3.848c-6.982,0-13.966,0-20.95,0c0.378-1.286,1.067-2.34,2.031-3.187
			c3.228-2.837,7.531-2.644,11.512-2.644c3.361,0,6.723,0,10.084,0c0.642-1.439,1.283-2.877,1.925-4.316c-7.527,0-15.519,0-23.046,0
			c-2.437,0.066-4.658,0.461-6.683,1.146c-7.233,2.448-11.174,7.873-12.872,15.06c-0.981,4.156,0.605,6.806,5.294,6.663
			C175.353,39.811,183.882,39.811,192.992,39.811L192.992,39.811z M62.522,27.459c0.892,0,1.784,0,2.676,0
			c9.442-8.668,24.486-18.038,43.726-17.763c5.946,0.084,14.698,0.287,18.719,5.449c3.742,4.804,3.354,12.478-2.539,16.645
			c-31.153,0-61.896,0-93.048,0c0.686,1.374,1.373,2.749,2.058,4.125c2.06,0,4.119,0,6.179,0c0.891,1.374,1.782,2.749,2.672,4.124
			c2.197,0,4.394,0,6.591,0c0.754,1.306,1.508,2.612,2.261,3.918c32.113,0,64.226,0,96.339,0c2.816-6.465,4.066-12.293,3.621-18.122
			C150.365,7.341,131.514,2.452,116.17,2.688c-6.158,0.094-12.976,1.086-20.711,3.324C81.622,10.935,71.415,18.687,62.522,27.459z"
			/>
		<path fill="#EC2227" d="M334.283,46.978c-1.052,2.067-2.1,4.133-3.15,6.201c3.079,0,6.152,0,9.231,0
			c1.626-1.374,2.619-2.71,2.497-3.983c-0.238-2.488-2.368-2.219-4.168-2.219C337.224,46.978,335.755,46.978,334.283,46.978
			L334.283,46.978z M324.185,44.478c7.526,0,15.054,0,22.583,0c5.314,1.594,2.71,10.658-3.259,10.224c0,2.829,0,5.654,0.004,8.482
			c-3.733,0-7.461,0-11.184,0c-0.655-2.611-1.305-5.22-1.959-7.829c-1.226,2.609-2.458,5.219-3.689,7.829c-3.834,0-7.668,0-11.507,0
			C318.179,56.949,321.185,50.715,324.185,44.478L324.185,44.478z M290.504,62.916c6.23-0.003,12.46-0.005,18.691-0.007
			c2.662-0.697,4.262-2.031,4.796-4.004c0.886-1.965,1.772-3.931,2.658-5.896c1.335-2.96,3.454-5.78-0.677-7.647
			c-2.313-1.046-4.417-0.874-6.895-0.874c-2.611,0-5.223,0-7.834,0c-2.281,0-4.307-0.157-6.45,0.782
			c-2.999,1.318-3.562,2.581-4.823,5.403c-0.557,1.247-1.114,2.494-1.672,3.742c-1.061,2.376-2.352,4.104-0.915,6.66
			C287.981,62.138,288.976,62.818,290.504,62.916L290.504,62.916z M298.682,53.274c1.174-2.58,3.329-5.299,5.336-5.214
			c1.724,0,4.171,0,5.896,0c1.217,0.421,1.664,1.159,1.343,2.212c-1.082,2.204-2.801,7.309-4.47,8.646
			c-1.027,0.823-2.196,0.669-3.591,0.669c-0.982,0-1.515,0-2.5,0.001c-1.009,0-1.866-0.169-2.455-0.609
			C296.546,57.715,297.726,55.376,298.682,53.274L298.682,53.274z M185.281,63.23c2.771-6.14,5.543-12.28,8.315-18.421
			c4.53,0,9.061,0,13.591,0c1.385,1.922,2.77,3.844,4.156,5.767c2.807-2.065,5.601-4.134,9.274-5.767c2.612,0,5.223,0,7.835,0
			c-2.559,6.141-5.117,12.281-7.675,18.421c-2.078,0-4.157,0-6.235,0c1.545-3.737,3.091-7.475,4.637-11.213
			c-4.264,1.336-7.941,5.02-11.353,9.771c-0.72-4.699-2.106-8.33-4.957-9.611c-1.546,3.738-3.091,7.476-4.637,11.213
			C193.915,63.337,189.598,63.283,185.281,63.23L185.281,63.23z M229.587,62.916c6.229-0.003,12.46-0.005,18.69-0.007
			c2.662-0.697,4.262-2.031,4.796-4.004c0.885-1.965,1.772-3.931,2.658-5.896c1.336-2.96,3.454-5.78-0.677-7.647
			c-2.313-1.046-4.417-0.874-6.895-0.874c-2.611,0-5.223,0-7.834,0c-2.281,0-4.307-0.157-6.45,0.782
			c-2.999,1.318-3.562,2.581-4.823,5.403c-0.557,1.247-1.115,2.494-1.672,3.742c-1.061,2.376-2.352,4.104-0.916,6.66
			C227.064,62.138,228.059,62.818,229.587,62.916L229.587,62.916z M237.764,53.274c1.174-2.58,3.329-5.299,5.336-5.214
			c1.724,0,4.171,0,5.896,0c1.217,0.421,1.664,1.159,1.344,2.212c-1.082,2.204-2.802,7.309-4.47,8.646
			c-1.027,0.823-2.196,0.669-3.591,0.669c-0.982,0-1.515,0-2.5,0.001c-1.009,0-1.866-0.169-2.455-0.609
			C235.628,57.715,236.808,55.376,237.764,53.274L237.764,53.274z M262.652,44.891h26.463l-1.805,4.006h-7.26l-6.147,14.022h-11.761
			l6.147-14.022h-7.441L262.652,44.891L262.652,44.891z M79.814,47.67c-8.851,0-17.703,0-26.555,0
			c-0.091,10.64,3.282,20.323,16.927,24.91c17.718,5.359,33.907,4.495,47.71-2.018c14.295-7.047,22.149-14.953,28.202-23.098
			c-0.961,0-1.036,0-1.996,0c-9.793,10.541-20.439,17.676-33.26,20.94c-9.496,2.418-21.985,3.523-30.571-2.099
			c-4.953-3.243-7.425-7.882-4.449-13.585C76.688,51.058,78.009,49.385,79.814,47.67z"/>
	</g>
</g>
</svg>
