<?xml version="1.0" encoding="utf-8"?>
<!-- Generator: Adobe Illustrator 17.0.0, SVG Export Plug-In . SVG Version: 6.00 Build 0)  -->
<!DOCTYPE svg PUBLIC "-//W3C//DTD SVG 1.1//EN" "http://www.w3.org/Graphics/SVG/1.1/DTD/svg11.dtd">
<svg version="1.1" id="Layer_1" xmlns="http://www.w3.org/2000/svg" xmlns:xlink="http://www.w3.org/1999/xlink" x="0px" y="0px"
	 width="380px" height="80px" viewBox="0 0 380 80" enable-background="new 0 0 380 80" xml:space="preserve">
<g>
	<g>
		<path fill="#010101" d="M294.242,20.979h18.628c4.229,0,7.524,3.463,5.819,7.69l-3.364,8.416c-1.693,4.226-4.252,7.69-8.477,7.69
			h-22.141c-4.229,0-6.306-3.463-4.614-7.69l3.372-8.416C285.16,24.432,290.015,20.979,294.242,20.979L294.242,20.979z
			 M301.274,26.185c-1.812-0.079-4.529,2.092-5.555,4.327c-0.931,2.027-1.863,4.055-2.794,6.083
			c-1.027,2.234,0.062,4.076,1.856,4.326c2.581,0.361,5.161,0.361,7.742,0c2.374-0.331,5.293-7.69,6.675-10.087
			c1.199-2.082,1.19-4.248-0.622-4.327C306.141,26.399,303.707,26.292,301.274,26.185L301.274,26.185z M260.004,24.589
			c-1.325,2.609-2.651,5.219-3.976,7.829c3.886,0,7.772,0,11.658,0c2.055-1.732,3.308-3.42,3.155-5.028
			c-0.299-3.141-2.991-2.801-5.266-2.801C263.716,24.589,261.86,24.589,260.004,24.589L260.004,24.589z M247.252,21.429
			c-3.793,7.876-7.587,15.752-11.38,23.628c4.846,0,9.69,0,14.535,0c1.554-3.297,3.107-6.594,4.661-9.891
			c0.823,3.296,1.645,6.593,2.468,9.891c4.707,0,9.415,0,14.123,0c0-3.572,0-7.143,0-10.714c7.541,0.55,10.831-10.898,4.113-12.913
			C266.264,21.429,256.758,21.429,247.252,21.429L247.252,21.429z M207.238,21.246c4.868,0,9.735,0,14.603,0
			c-2.575,4.948-5.15,9.896-7.724,14.844c-1.609,6.206,10.539,6.91,13.277,0c2.453-4.908,4.906-9.816,7.36-14.723
			c2.618,0,5.235,0,7.853,0c-3.059,6.356-6.12,12.712-9.18,19.068c-1.645,2.474-4.679,4.395-8.386,4.458
			c-3.794,0.064-13.511,0.157-19.631-0.047c-4.5-0.15-5.876-1.866-6.379-4.411c0.002-3.09,1.203-4.871,2.565-7.656
			C203.477,28.934,205.358,25.09,207.238,21.246L207.238,21.246z M192.992,43.723c0.511-1.17,1.022-2.341,1.533-3.511
			c-5.509,0-11.368,0-16.877,0c-2.611-0.68-1.849-2.911-1.042-5.458c6.984,0,13.613,0.094,20.596,0.094
			c0.582-1.283,1.164-2.566,1.746-3.848c-6.982,0-13.966,0-20.95,0c0.378-1.286,1.067-2.34,2.031-3.187
			c3.228-2.837,7.531-2.644,11.512-2.644c3.361,0,6.723,0,10.084,0c0.642-1.439,1.283-2.877,1.925-4.316c-7.527,0-15.519,0-23.046,0
			c-2.437,0.066-4.658,0.461-6.683,1.146c-7.233,2.448-11.174,7.873-12.872,15.06c-0.981,4.156,0.605,6.806,5.294,6.663
			C175.353,43.723,183.882,43.723,192.992,43.723L192.992,43.723z M62.522,31.371c0.892,0,1.784,0,2.676,0
			c9.442-8.668,24.486-18.038,43.726-17.763c5.946,0.084,14.698,0.287,18.719,5.449c3.742,4.804,3.354,12.478-2.539,16.645
			c-31.153,0-61.896,0-93.048,0c0.686,1.374,1.373,2.749,2.058,4.125c2.06,0,4.119,0,6.179,0c0.891,1.374,1.782,2.749,2.672,4.124
			c2.197,0,4.394,0,6.591,0c0.754,1.306,1.508,2.612,2.261,3.918c32.113,0,64.226,0,96.339,0c2.816-6.465,4.066-12.293,3.621-18.122
			C150.365,11.253,131.514,6.364,116.17,6.6c-6.158,0.094-12.976,1.086-20.711,3.324C81.622,14.847,71.415,22.599,62.522,31.371z"/>
		<path fill="#010101" d="M334.283,50.89c-1.052,2.067-2.1,4.133-3.15,6.201c3.079,0,6.152,0,9.231,0
			c1.626-1.374,2.619-2.71,2.497-3.983c-0.238-2.488-2.368-2.219-4.168-2.219C337.224,50.89,335.755,50.89,334.283,50.89
			L334.283,50.89z M324.185,48.39c7.526,0,15.054,0,22.583,0c5.314,1.594,2.71,10.658-3.259,10.224c0,2.829,0,5.654,0.004,8.482
			c-3.733,0-7.461,0-11.184,0c-0.655-2.611-1.305-5.22-1.959-7.829c-1.226,2.609-2.458,5.219-3.689,7.829c-3.834,0-7.668,0-11.507,0
			C318.179,60.861,321.185,54.627,324.185,48.39L324.185,48.39z M290.504,66.828c6.23-0.003,12.46-0.005,18.691-0.007
			c2.662-0.697,4.262-2.031,4.796-4.004c0.886-1.965,1.772-3.931,2.658-5.896c1.335-2.96,3.454-5.78-0.677-7.647
			c-2.313-1.046-4.417-0.874-6.895-0.874c-2.611,0-5.223,0-7.834,0c-2.281,0-4.307-0.157-6.45,0.782
			c-2.999,1.318-3.562,2.581-4.823,5.403c-0.557,1.247-1.114,2.494-1.672,3.742c-1.061,2.376-2.352,4.104-0.915,6.66
			C287.981,66.05,288.976,66.73,290.504,66.828L290.504,66.828z M298.682,57.186c1.174-2.58,3.329-5.299,5.336-5.214
			c1.724,0,4.171,0,5.896,0c1.217,0.421,1.664,1.159,1.343,2.212c-1.082,2.204-2.801,7.309-4.47,8.646
			c-1.027,0.823-2.196,0.669-3.591,0.669c-0.982,0-1.515,0-2.5,0.001c-1.009,0-1.866-0.169-2.455-0.609
			C296.546,61.627,297.726,59.288,298.682,57.186L298.682,57.186z M185.281,67.142c2.771-6.14,5.543-12.28,8.315-18.421
			c4.53,0,9.061,0,13.591,0c1.385,1.922,2.77,3.844,4.156,5.767c2.807-2.065,5.601-4.134,9.274-5.767c2.612,0,5.223,0,7.835,0
			c-2.559,6.141-5.117,12.281-7.675,18.421c-2.078,0-4.157,0-6.235,0c1.545-3.737,3.091-7.475,4.637-11.213
			c-4.264,1.336-7.941,5.02-11.353,9.771c-0.72-4.699-2.106-8.33-4.957-9.611c-1.546,3.738-3.091,7.476-4.637,11.213
			C193.915,67.249,189.598,67.195,185.281,67.142L185.281,67.142z M229.587,66.828c6.229-0.003,12.46-0.005,18.69-0.007
			c2.662-0.697,4.262-2.031,4.796-4.004c0.885-1.965,1.772-3.931,2.658-5.896c1.336-2.96,3.454-5.78-0.677-7.647
			c-2.313-1.046-4.417-0.874-6.895-0.874c-2.611,0-5.223,0-7.834,0c-2.281,0-4.307-0.157-6.45,0.782
			c-2.999,1.318-3.562,2.581-4.823,5.403c-0.557,1.247-1.115,2.494-1.672,3.742c-1.061,2.376-2.352,4.104-0.916,6.66
			C227.064,66.05,228.059,66.73,229.587,66.828L229.587,66.828z M237.764,57.186c1.174-2.58,3.329-5.299,5.336-5.214
			c1.724,0,4.171,0,5.896,0c1.217,0.421,1.664,1.159,1.344,2.212c-1.082,2.204-2.802,7.309-4.47,8.646
			c-1.027,0.823-2.196,0.669-3.591,0.669c-0.982,0-1.515,0-2.5,0.001c-1.009,0-1.866-0.169-2.455-0.609
			C235.628,61.627,236.808,59.288,237.764,57.186L237.764,57.186z M262.652,48.803h26.463l-1.805,4.006h-7.26l-6.147,14.022h-11.761
			l6.147-14.022h-7.441L262.652,48.803L262.652,48.803z M79.814,51.582c-8.851,0-17.703,0-26.555,0
			c-0.091,10.64,3.282,20.323,16.927,24.91c17.718,5.359,33.907,4.495,47.71-2.018c14.295-7.047,22.149-14.953,28.202-23.098
			c-0.961,0-1.036,0-1.996,0c-9.793,10.541-20.439,17.676-33.26,20.94c-9.496,2.418-21.985,3.523-30.571-2.099
			c-4.953-3.243-7.425-7.882-4.449-13.585C76.688,54.97,78.009,53.297,79.814,51.582z"/>
	</g>
	<g>
		<path fill="#085DAA" d="M294.242,20.979h18.628c4.229,0,7.524,3.463,5.819,7.69l-3.364,8.416c-1.693,4.226-4.252,7.69-8.477,7.69
			h-22.141c-4.229,0-6.306-3.463-4.614-7.69l3.372-8.416C285.16,24.432,290.015,20.979,294.242,20.979L294.242,20.979z
			 M301.274,26.185c-1.812-0.079-4.529,2.092-5.555,4.327c-0.931,2.027-1.863,4.055-2.794,6.083
			c-1.027,2.234,0.062,4.076,1.856,4.326c2.581,0.361,5.161,0.361,7.742,0c2.374-0.331,5.293-7.69,6.675-10.087
			c1.199-2.082,1.19-4.248-0.622-4.327C306.141,26.399,303.707,26.292,301.274,26.185L301.274,26.185z M260.004,24.589
			c-1.325,2.609-2.651,5.219-3.976,7.829c3.886,0,7.772,0,11.658,0c2.055-1.732,3.308-3.42,3.155-5.028
			c-0.299-3.141-2.991-2.801-5.266-2.801C263.716,24.589,261.86,24.589,260.004,24.589L260.004,24.589z M247.252,21.429
			c-3.793,7.876-7.587,15.752-11.38,23.628c4.846,0,9.69,0,14.535,0c1.554-3.297,3.107-6.594,4.661-9.891
			c0.823,3.296,1.645,6.593,2.468,9.891c4.707,0,9.415,0,14.123,0c0-3.572,0-7.143,0-10.714c7.541,0.55,10.831-10.898,4.113-12.913
			C266.264,21.429,256.758,21.429,247.252,21.429L247.252,21.429z M207.238,21.246c4.868,0,9.735,0,14.603,0
			c-2.575,4.948-5.15,9.896-7.724,14.844c-1.609,6.206,10.539,6.91,13.277,0c2.453-4.908,4.906-9.816,7.36-14.723
			c2.618,0,5.235,0,7.853,0c-3.059,6.356-6.12,12.712-9.18,19.068c-1.645,2.474-4.679,4.395-8.386,4.458
			c-3.794,0.064-13.511,0.157-19.631-0.047c-4.5-0.15-5.876-1.866-6.379-4.411c0.002-3.09,1.203-4.871,2.565-7.656
			C203.477,28.934,205.358,25.09,207.238,21.246L207.238,21.246z M192.992,43.723c0.511-1.17,1.022-2.341,1.533-3.511
			c-5.509,0-11.368,0-16.877,0c-2.611-0.68-1.849-2.911-1.042-5.458c6.984,0,13.613,0.094,20.596,0.094
			c0.582-1.283,1.164-2.566,1.746-3.848c-6.982,0-13.966,0-20.95,0c0.378-1.286,1.067-2.34,2.031-3.187
			c3.228-2.837,7.531-2.644,11.512-2.644c3.361,0,6.723,0,10.084,0c0.642-1.439,1.283-2.877,1.925-4.316c-7.527,0-15.519,0-23.046,0
			c-2.437,0.066-4.658,0.461-6.683,1.146c-7.233,2.448-11.174,7.873-12.872,15.06c-0.981,4.156,0.605,6.806,5.294,6.663
			C175.353,43.723,183.882,43.723,192.992,43.723L192.992,43.723z M62.522,31.371c0.892,0,1.784,0,2.676,0
			c9.442-8.668,24.486-18.038,43.726-17.763c5.946,0.084,14.698,0.287,18.719,5.449c3.742,4.804,3.354,12.478-2.539,16.645
			c-31.153,0-61.896,0-93.048,0c0.686,1.374,1.373,2.749,2.058,4.125c2.06,0,4.119,0,6.179,0c0.891,1.374,1.782,2.749,2.672,4.124
			c2.197,0,4.394,0,6.591,0c0.754,1.306,1.508,2.612,2.261,3.918c32.113,0,64.226,0,96.339,0c2.816-6.465,4.066-12.293,3.621-18.122
			C150.365,11.253,131.514,6.364,116.17,6.6c-6.158,0.094-12.976,1.086-20.711,3.324C81.622,14.847,71.415,22.599,62.522,31.371z"/>
		<path fill="#EC2227" d="M334.283,50.89c-1.052,2.067-2.1,4.133-3.15,6.201c3.079,0,6.152,0,9.231,0
			c1.626-1.374,2.619-2.71,2.497-3.983c-0.238-2.488-2.368-2.219-4.168-2.219C337.224,50.89,335.755,50.89,334.283,50.89
			L334.283,50.89z M324.185,48.39c7.526,0,15.054,0,22.583,0c5.314,1.594,2.71,10.658-3.259,10.224c0,2.829,0,5.654,0.004,8.482
			c-3.733,0-7.461,0-11.184,0c-0.655-2.611-1.305-5.22-1.959-7.829c-1.226,2.609-2.458,5.219-3.689,7.829c-3.834,0-7.668,0-11.507,0
			C318.179,60.861,321.185,54.627,324.185,48.39L324.185,48.39z M290.504,66.828c6.23-0.003,12.46-0.005,18.691-0.007
			c2.662-0.697,4.262-2.031,4.796-4.004c0.886-1.965,1.772-3.931,2.658-5.896c1.335-2.96,3.454-5.78-0.677-7.647
			c-2.313-1.046-4.417-0.874-6.895-0.874c-2.611,0-5.223,0-7.834,0c-2.281,0-4.307-0.157-6.45,0.782
			c-2.999,1.318-3.562,2.581-4.823,5.403c-0.557,1.247-1.114,2.494-1.672,3.742c-1.061,2.376-2.352,4.104-0.915,6.66
			C287.981,66.05,288.976,66.73,290.504,66.828L290.504,66.828z M298.682,57.186c1.174-2.58,3.329-5.299,5.336-5.214
			c1.724,0,4.171,0,5.896,0c1.217,0.421,1.664,1.159,1.343,2.212c-1.082,2.204-2.801,7.309-4.47,8.646
			c-1.027,0.823-2.196,0.669-3.591,0.669c-0.982,0-1.515,0-2.5,0.001c-1.009,0-1.866-0.169-2.455-0.609
			C296.546,61.627,297.726,59.288,298.682,57.186L298.682,57.186z M185.281,67.142c2.771-6.14,5.543-12.28,8.315-18.421
			c4.53,0,9.061,0,13.591,0c1.385,1.922,2.77,3.844,4.156,5.767c2.807-2.065,5.601-4.134,9.274-5.767c2.612,0,5.223,0,7.835,0
			c-2.559,6.141-5.117,12.281-7.675,18.421c-2.078,0-4.157,0-6.235,0c1.545-3.737,3.091-7.475,4.637-11.213
			c-4.264,1.336-7.941,5.02-11.353,9.771c-0.72-4.699-2.106-8.33-4.957-9.611c-1.546,3.738-3.091,7.476-4.637,11.213
			C193.915,67.249,189.598,67.195,185.281,67.142L185.281,67.142z M229.587,66.828c6.229-0.003,12.46-0.005,18.69-0.007
			c2.662-0.697,4.262-2.031,4.796-4.004c0.885-1.965,1.772-3.931,2.658-5.896c1.336-2.96,3.454-5.78-0.677-7.647
			c-2.313-1.046-4.417-0.874-6.895-0.874c-2.611,0-5.223,0-7.834,0c-2.281,0-4.307-0.157-6.45,0.782
			c-2.999,1.318-3.562,2.581-4.823,5.403c-0.557,1.247-1.115,2.494-1.672,3.742c-1.061,2.376-2.352,4.104-0.916,6.66
			C227.064,66.05,228.059,66.73,229.587,66.828L229.587,66.828z M237.764,57.186c1.174-2.58,3.329-5.299,5.336-5.214
			c1.724,0,4.171,0,5.896,0c1.217,0.421,1.664,1.159,1.344,2.212c-1.082,2.204-2.802,7.309-4.47,8.646
			c-1.027,0.823-2.196,0.669-3.591,0.669c-0.982,0-1.515,0-2.5,0.001c-1.009,0-1.866-0.169-2.455-0.609
			C235.628,61.627,236.808,59.288,237.764,57.186L237.764,57.186z M262.652,48.803h26.463l-1.805,4.006h-7.26l-6.147,14.022h-11.761
			l6.147-14.022h-7.441L262.652,48.803L262.652,48.803z M79.814,51.582c-8.851,0-17.703,0-26.555,0
			c-0.091,10.64,3.282,20.323,16.927,24.91c17.718,5.359,33.907,4.495,47.71-2.018c14.295-7.047,22.149-14.953,28.202-23.098
			c-0.961,0-1.036,0-1.996,0c-9.793,10.541-20.439,17.676-33.26,20.94c-9.496,2.418-21.985,3.523-30.571-2.099
			c-4.953-3.243-7.425-7.882-4.449-13.585C76.688,54.97,78.009,53.297,79.814,51.582z"/>
	</g>
</g>
<rect x="-1" y="-2.5" fill="#FFFFFF" stroke="#000000" stroke-miterlimit="10" width="383.5" height="83.5"/>
<g>
	<g>
		<g>
			<path d="M297.643,16.9h19.285c4.378,0,7.789,3.585,6.024,7.961l-3.482,8.712c-1.753,4.376-4.402,7.961-8.775,7.961h-22.92
				c-4.378,0-6.528-3.585-4.777-7.961l3.491-8.712C288.241,20.473,293.268,16.9,297.643,16.9L297.643,16.9z M304.922,22.288
				c-1.875-0.082-4.689,2.166-5.751,4.479c-0.964,2.099-1.929,4.198-2.893,6.298c-1.063,2.313,0.064,4.219,1.922,4.478
				c2.672,0.374,5.342,0.374,8.015,0c2.458-0.343,5.479-7.961,6.91-10.443c1.242-2.156,1.231-4.397-0.644-4.479
				C309.961,22.51,307.442,22.399,304.922,22.288L304.922,22.288z M262.199,20.635c-1.373,2.701-2.744,5.404-4.117,8.105
				c4.023,0,8.045,0,12.068,0c2.128-1.793,3.424-3.54,3.266-5.205c-0.31-3.252-3.096-2.901-5.452-2.901
				C266.043,20.635,264.121,20.635,262.199,20.635L262.199,20.635z M248.998,17.364c-3.927,8.154-7.854,16.306-11.781,24.46
				c5.017,0,10.031,0,15.047,0c1.608-3.413,3.216-6.826,4.825-10.239c0.852,3.413,1.703,6.825,2.555,10.239
				c4.873,0,9.747,0,14.621,0c-0.001-3.697-0.001-7.395-0.001-11.092c7.807,0.569,11.213-11.282,4.258-13.368
				C268.68,17.364,258.84,17.364,248.998,17.364L248.998,17.364z M207.575,17.175c5.039,0,10.078,0,15.118,0
				c-2.666,5.122-5.331,10.245-7.996,15.367c-1.666,6.425,10.91,7.153,13.745,0c2.539-5.081,5.079-10.161,7.618-15.242
				c2.709,0,5.419,0,8.129,0c-3.168,6.58-6.336,13.159-9.503,19.74c-1.703,2.562-4.844,4.55-8.681,4.615
				c-3.928,0.067-13.987,0.163-20.322-0.048c-4.658-0.155-6.084-1.932-6.604-4.567c0.002-3.199,1.245-5.042,2.655-7.926
				C203.681,25.135,205.629,21.155,207.575,17.175L207.575,17.175z M192.828,40.444c0.529-1.212,1.058-2.424,1.586-3.635
				c-5.703,0-11.769,0-17.471,0c-2.703-0.704-1.914-3.014-1.08-5.651c7.23,0,14.092,0.097,21.321,0.097
				c0.603-1.328,1.205-2.656,1.807-3.984c-7.229,0-14.459,0-21.688,0c0.391-1.331,1.105-2.422,2.103-3.299
				c3.341-2.937,7.797-2.737,11.918-2.737c3.479,0,6.96,0,10.439,0c0.664-1.49,1.328-2.979,1.993-4.468c-7.792,0-16.066,0-23.858,0
				c-2.523,0.068-4.822,0.477-6.918,1.187c-7.488,2.534-11.568,8.149-13.325,15.591c-1.015,4.302,0.626,7.046,5.48,6.898
				C174.567,40.444,183.397,40.444,192.828,40.444L192.828,40.444z M57.762,27.658c0.923,0,1.847,0,2.771,0
				c9.775-8.974,25.348-18.673,45.265-18.389c6.155,0.087,15.216,0.298,19.378,5.641c3.875,4.973,3.473,12.918-2.629,17.232
				c-32.25,0-64.076,0-96.325,0c0.711,1.423,1.421,2.847,2.131,4.27c2.132,0,4.264,0,6.397,0c0.922,1.422,1.844,2.847,2.767,4.27
				c2.275,0,4.549,0,6.823,0c0.781,1.352,1.561,2.704,2.341,4.056c33.244,0,66.488,0,99.732,0c2.915-6.693,4.209-12.726,3.748-18.76
				C148.699,6.832,129.183,1.77,113.298,2.014c-6.375,0.098-13.433,1.124-21.44,3.441C77.535,10.551,66.968,18.575,57.762,27.658z"
				/>
			<path d="M339.095,47.864c-1.089,2.139-2.174,4.278-3.26,6.42c3.187,0,6.369,0,9.557,0c1.683-1.422,2.711-2.805,2.584-4.123
				c-0.246-2.575-2.451-2.296-4.315-2.296C342.14,47.864,340.618,47.864,339.095,47.864L339.095,47.864z M328.642,45.275
				c7.791,0,15.584,0,23.379,0c5.501,1.651,2.806,11.033-3.373,10.584c0,2.929,0,5.854,0.004,8.78c-3.864,0-7.724,0-11.577,0
				c-0.678-2.703-1.352-5.404-2.028-8.105c-1.268,2.701-2.544,5.403-3.819,8.105c-3.969,0-7.938,0-11.912,0
				C322.423,58.185,325.535,51.733,328.642,45.275L328.642,45.275z M293.775,64.363c6.45-0.003,12.899-0.005,19.349-0.007
				c2.755-0.721,4.412-2.103,4.965-4.145c0.917-2.034,1.834-4.069,2.752-6.104c1.383-3.065,3.576-5.984-0.701-7.916
				c-2.395-1.084-4.573-0.905-7.138-0.905c-2.703,0-5.408,0-8.11,0c-2.361,0-4.459-0.163-6.677,0.81
				c-3.105,1.365-3.687,2.672-4.992,5.593c-0.577,1.291-1.154,2.583-1.731,3.874c-1.098,2.46-2.435,4.248-0.948,6.894
				C291.162,63.558,292.192,64.261,293.775,64.363L293.775,64.363z M302.24,54.381c1.215-2.671,3.446-5.485,5.524-5.398
				c1.785,0,4.318,0,6.103,0c1.259,0.437,1.723,1.2,1.391,2.291c-1.12,2.282-2.901,7.566-4.627,8.95
				c-1.064,0.851-2.273,0.693-3.717,0.693c-1.016,0-1.569,0.001-2.589,0.002c-1.045,0-1.932-0.176-2.541-0.63
				C300.028,58.979,301.249,56.558,302.24,54.381L302.24,54.381z M184.845,64.688c2.868-6.357,5.738-12.712,8.607-19.07
				c4.689,0,9.38,0,14.07,0c1.434,1.99,2.868,3.98,4.302,5.97c2.906-2.137,5.798-4.28,9.6-5.97c2.703,0,5.407,0,8.11,0
				c-2.649,6.357-5.297,12.713-7.946,19.07c-2.152,0-4.303,0-6.455,0c1.6-3.869,3.2-7.738,4.8-11.608
				c-4.414,1.383-8.221,5.196-11.752,10.115c-0.746-4.865-2.18-8.623-5.131-9.95c-1.601,3.87-3.2,7.739-4.8,11.608
				C193.783,64.799,189.314,64.743,184.845,64.688L184.845,64.688z M230.711,64.363c6.449-0.003,12.899-0.005,19.349-0.007
				c2.756-0.721,4.412-2.103,4.966-4.145c0.916-2.034,1.834-4.069,2.751-6.104c1.383-3.065,3.576-5.984-0.7-7.916
				c-2.395-1.084-4.573-0.905-7.138-0.905c-2.703,0-5.408,0-8.11,0c-2.361,0-4.459-0.163-6.677,0.81
				c-3.105,1.365-3.687,2.672-4.992,5.593c-0.577,1.291-1.154,2.583-1.731,3.874c-1.098,2.46-2.435,4.248-0.948,6.894
				C228.099,63.558,229.129,64.261,230.711,64.363L230.711,64.363z M239.176,54.381c1.215-2.671,3.446-5.485,5.524-5.398
				c1.785,0,4.318,0,6.103,0c1.26,0.437,1.723,1.2,1.391,2.291c-1.12,2.282-2.901,7.566-4.627,8.95
				c-1.063,0.851-2.273,0.693-3.717,0.693c-1.016,0-1.569,0.001-2.588,0.002c-1.045,0-1.932-0.176-2.541-0.63
				C236.965,58.979,238.187,56.558,239.176,54.381L239.176,54.381z M264.941,45.703h27.394l-1.869,4.147h-7.516l-6.364,14.516
				h-12.175l6.364-14.516h-7.703L264.941,45.703L264.941,45.703z M75.663,48.58c-9.163,0-18.327,0-27.49,0
				c-0.094,11.016,3.397,21.04,17.523,25.788c18.342,5.548,35.101,4.653,49.391-2.089c14.798-7.296,22.929-15.479,29.195-23.912
				c-0.995,0-1.072,0-2.067,0c-10.139,10.912-21.16,18.298-34.432,21.678c-9.83,2.503-22.76,3.647-31.648-2.173
				c-5.128-3.358-7.686-8.16-4.606-14.064C72.427,52.087,73.795,50.355,75.663,48.58z"/>
		</g>
		<g>
			<path fill="#005BAA" d="M297.643,16.9h19.285c4.378,0,7.789,3.585,6.024,7.961l-3.482,8.712
				c-1.753,4.376-4.402,7.961-8.775,7.961h-22.92c-4.378,0-6.528-3.585-4.777-7.961l3.491-8.712
				C288.241,20.473,293.268,16.9,297.643,16.9L297.643,16.9z M304.922,22.288c-1.875-0.082-4.689,2.166-5.751,4.479
				c-0.964,2.099-1.929,4.198-2.893,6.298c-1.063,2.313,0.064,4.219,1.922,4.478c2.672,0.374,5.342,0.374,8.015,0
				c2.458-0.343,5.479-7.961,6.91-10.443c1.242-2.156,1.231-4.397-0.644-4.479C309.961,22.51,307.442,22.399,304.922,22.288
				L304.922,22.288z M262.199,20.635c-1.373,2.701-2.744,5.404-4.117,8.105c4.023,0,8.045,0,12.068,0
				c2.128-1.793,3.424-3.54,3.266-5.205c-0.31-3.252-3.096-2.901-5.452-2.901C266.043,20.635,264.121,20.635,262.199,20.635
				L262.199,20.635z M248.998,17.364c-3.927,8.154-7.854,16.306-11.781,24.46c5.017,0,10.031,0,15.047,0
				c1.608-3.413,3.216-6.826,4.825-10.239c0.852,3.413,1.703,6.825,2.555,10.239c4.873,0,9.747,0,14.621,0
				c-0.001-3.697-0.001-7.395-0.001-11.092c7.807,0.569,11.213-11.282,4.258-13.368C268.68,17.364,258.84,17.364,248.998,17.364
				L248.998,17.364z M207.575,17.175c5.039,0,10.078,0,15.118,0c-2.666,5.122-5.331,10.245-7.996,15.367
				c-1.666,6.425,10.91,7.153,13.745,0c2.539-5.081,5.079-10.161,7.618-15.242c2.709,0,5.419,0,8.129,0
				c-3.168,6.58-6.336,13.159-9.503,19.74c-1.703,2.562-4.844,4.55-8.681,4.615c-3.928,0.067-13.987,0.163-20.322-0.048
				c-4.658-0.155-6.084-1.932-6.604-4.567c0.002-3.199,1.245-5.042,2.655-7.926C203.681,25.135,205.629,21.155,207.575,17.175
				L207.575,17.175z M192.828,40.444c0.529-1.212,1.058-2.424,1.586-3.635c-5.703,0-11.769,0-17.471,0
				c-2.703-0.704-1.914-3.014-1.08-5.651c7.23,0,14.092,0.097,21.321,0.097c0.603-1.328,1.205-2.656,1.807-3.984
				c-7.229,0-14.459,0-21.688,0c0.391-1.331,1.105-2.422,2.103-3.299c3.341-2.937,7.797-2.737,11.918-2.737c3.479,0,6.96,0,10.439,0
				c0.664-1.49,1.328-2.979,1.993-4.468c-7.792,0-16.066,0-23.858,0c-2.523,0.068-4.822,0.477-6.918,1.187
				c-7.488,2.534-11.568,8.149-13.325,15.591c-1.015,4.302,0.626,7.046,5.48,6.898C174.567,40.444,183.397,40.444,192.828,40.444
				L192.828,40.444z M57.762,27.658c0.923,0,1.847,0,2.771,0c9.775-8.974,25.348-18.673,45.265-18.389
				c6.155,0.087,15.216,0.298,19.378,5.641c3.875,4.973,3.473,12.918-2.629,17.232c-32.25,0-64.076,0-96.325,0
				c0.711,1.423,1.421,2.847,2.131,4.27c2.132,0,4.264,0,6.397,0c0.922,1.422,1.844,2.847,2.767,4.27c2.275,0,4.549,0,6.823,0
				c0.781,1.352,1.561,2.704,2.341,4.056c33.244,0,66.488,0,99.732,0c2.915-6.693,4.209-12.726,3.748-18.76
				C148.699,6.832,129.183,1.77,113.298,2.014c-6.375,0.098-13.433,1.124-21.44,3.441C77.535,10.551,66.968,18.575,57.762,27.658z"
				/>
			<path fill="#ED1C24" d="M339.095,47.864c-1.089,2.139-2.174,4.278-3.26,6.42c3.187,0,6.369,0,9.557,0
				c1.683-1.422,2.711-2.805,2.584-4.123c-0.246-2.575-2.451-2.296-4.315-2.296C342.14,47.864,340.618,47.864,339.095,47.864
				L339.095,47.864z M328.642,45.275c7.791,0,15.584,0,23.379,0c5.501,1.651,2.806,11.033-3.373,10.584c0,2.929,0,5.854,0.004,8.78
				c-3.864,0-7.724,0-11.577,0c-0.678-2.703-1.352-5.404-2.028-8.105c-1.268,2.701-2.544,5.403-3.819,8.105
				c-3.969,0-7.938,0-11.912,0C322.423,58.185,325.535,51.733,328.642,45.275L328.642,45.275z M293.775,64.363
				c6.45-0.003,12.899-0.005,19.349-0.007c2.755-0.721,4.412-2.103,4.965-4.145c0.917-2.034,1.834-4.069,2.752-6.104
				c1.383-3.065,3.576-5.984-0.701-7.916c-2.395-1.084-4.573-0.905-7.138-0.905c-2.703,0-5.408,0-8.11,0
				c-2.361,0-4.459-0.163-6.677,0.81c-3.105,1.365-3.687,2.672-4.992,5.593c-0.577,1.291-1.154,2.583-1.731,3.874
				c-1.098,2.46-2.435,4.248-0.948,6.894C291.162,63.558,292.192,64.261,293.775,64.363L293.775,64.363z M302.24,54.381
				c1.215-2.671,3.446-5.485,5.524-5.398c1.785,0,4.318,0,6.103,0c1.259,0.437,1.723,1.2,1.391,2.291
				c-1.12,2.282-2.901,7.566-4.627,8.95c-1.064,0.851-2.273,0.693-3.717,0.693c-1.016,0-1.569,0.001-2.589,0.002
				c-1.045,0-1.932-0.176-2.541-0.63C300.028,58.979,301.249,56.558,302.24,54.381L302.24,54.381z M184.845,64.688
				c2.868-6.357,5.738-12.712,8.607-19.07c4.689,0,9.38,0,14.07,0c1.434,1.99,2.868,3.98,4.302,5.97
				c2.906-2.137,5.798-4.28,9.6-5.97c2.703,0,5.407,0,8.11,0c-2.649,6.357-5.297,12.713-7.946,19.07c-2.152,0-4.303,0-6.455,0
				c1.6-3.869,3.2-7.738,4.8-11.608c-4.414,1.383-8.221,5.196-11.752,10.115c-0.746-4.865-2.18-8.623-5.131-9.95
				c-1.601,3.87-3.2,7.739-4.8,11.608C193.783,64.799,189.314,64.743,184.845,64.688L184.845,64.688z M230.711,64.363
				c6.449-0.003,12.899-0.005,19.349-0.007c2.756-0.721,4.412-2.103,4.966-4.145c0.916-2.034,1.834-4.069,2.751-6.104
				c1.383-3.065,3.576-5.984-0.7-7.916c-2.395-1.084-4.573-0.905-7.138-0.905c-2.703,0-5.408,0-8.11,0
				c-2.361,0-4.459-0.163-6.677,0.81c-3.105,1.365-3.687,2.672-4.992,5.593c-0.577,1.291-1.154,2.583-1.731,3.874
				c-1.098,2.46-2.435,4.248-0.948,6.894C228.099,63.558,229.129,64.261,230.711,64.363L230.711,64.363z M239.176,54.381
				c1.215-2.671,3.446-5.485,5.524-5.398c1.785,0,4.318,0,6.103,0c1.26,0.437,1.723,1.2,1.391,2.291
				c-1.12,2.282-2.901,7.566-4.627,8.95c-1.063,0.851-2.273,0.693-3.717,0.693c-1.016,0-1.569,0.001-2.588,0.002
				c-1.045,0-1.932-0.176-2.541-0.63C236.965,58.979,238.187,56.558,239.176,54.381L239.176,54.381z M264.941,45.703h27.394
				l-1.869,4.147h-7.516l-6.364,14.516h-12.175l6.364-14.516h-7.703L264.941,45.703L264.941,45.703z M75.663,48.58
				c-9.163,0-18.327,0-27.49,0c-0.094,11.016,3.397,21.04,17.523,25.788c18.342,5.548,35.101,4.653,49.391-2.089
				c14.798-7.296,22.929-15.479,29.195-23.912c-0.995,0-1.072,0-2.067,0c-10.139,10.912-21.16,18.298-34.432,21.678
				c-9.83,2.503-22.76,3.647-31.648-2.173c-5.128-3.358-7.686-8.16-4.606-14.064C72.427,52.087,73.795,50.355,75.663,48.58z"/>
		</g>
	</g>
</g>
<rect x="-16.5" y="-11.5" fill="#FFFFFF" stroke="#000000" stroke-miterlimit="10" width="407" height="100"/>
<g>
	<path fill="#26266B" d="M123.618,3c0.621,0.141,1.235,0.353,1.864,0.412c6.583,0.616,12.824,2.3,18.373,6.022
		c4.208,2.823,7.427,6.543,9.23,11.304c1.215,3.208,1.285,6.634,1.157,10.036c-0.183,4.883-1.373,9.532-3.352,13.988
		c-0.256,0.577-0.604,0.824-1.313,0.824c-32.004-0.024-64.008-0.021-96.012-0.006c-0.654,0-1.146-0.12-1.345-0.797
		c-0.8-2.727-2.616-3.7-5.355-3.158c-1.244,0.246-2.101-0.145-2.544-1.465c-0.305-0.911-0.812-1.781-1.37-2.568
		c-0.28-0.395-0.864-0.774-1.33-0.8c-1.692-0.094-3.394-0.076-5.091-0.018c-0.655,0.022-0.973-0.218-1.237-0.77
		c-0.553-1.158-1.161-2.29-1.835-3.605c0.597,0,1.009,0,1.422,0c30.053,0,60.107-0.003,90.16,0.016
		c0.895,0.001,1.572-0.257,2.24-0.838c3.11-2.707,4.768-5.99,4.316-10.206c-0.38-3.537-2.429-5.934-5.254-7.782
		c-4.038-2.642-8.595-3.726-13.322-3.751c-3.695-0.02-7.452,0.188-11.072,0.873c-4.42,0.836-8.846,1.96-13.056,3.53
		c-6.468,2.412-12.432,5.878-17.83,10.228c-1.486,1.197-2.921,2.483-4.216,3.88c-0.767,0.827-1.511,1.243-2.608,1.086
		c-0.351-0.05-0.716-0.008-1.393-0.008c0.582-0.764,1.005-1.357,1.467-1.919c3.984-4.84,8.776-8.758,13.996-12.173
		c5.349-3.5,10.97-6.518,17.053-8.493c3.498-1.136,7.148-1.843,10.764-2.565c2.428-0.484,4.92-0.65,7.38-0.977
		c0.342-0.045,0.67-0.198,1.005-0.301C117.548,3,120.584,3,123.618,3z"/>
	<path fill="#ED2024" d="M90.669,77.134c-1.119-0.125-2.237-0.257-3.357-0.372c-2.109-0.218-4.225-0.376-6.326-0.658
		c-1.807-0.242-3.636-0.478-5.382-0.972c-3.719-1.051-7.401-2.217-10.686-4.383c-2.834-1.87-5.555-3.885-7.027-7.014
		c-1.014-2.155-1.768-4.477-2.306-6.801c-0.515-2.225-0.604-4.55-0.876-6.832c-0.101-0.847,0.298-1.148,1.131-1.148
		c8.561,0.012,17.123,0.002,25.684,0.002c0.129,0,0.258,0.046,0.631,0.117c-0.472,0.426-0.781,0.747-1.13,1.015
		c-2.362,1.813-4.067,4.068-4.653,7.039c-0.299,1.521,0.199,2.932,0.866,4.268c1.2,2.403,3.23,4.027,5.339,5.568
		c3.449,2.52,7.399,3.254,11.57,3.489c4.492,0.253,8.913-0.225,13.299-0.975c3.125-0.534,6.218-1.366,9.251-2.303
		c3.021-0.933,6.039-1.974,8.902-3.304c5.548-2.578,10.599-5.979,15.08-10.16c1.437-1.341,2.607-2.964,3.963-4.398
		c0.346-0.367,0.919-0.661,1.417-0.714c1.028-0.109,2.075-0.033,3.502-0.033c-0.925,1.219-1.639,2.221-2.415,3.17
		c-5.481,6.713-12.204,11.91-19.766,16.058c-4.447,2.439-9.113,4.381-13.999,5.744c-3.169,0.884-6.349,1.79-9.583,2.354
		c-3.035,0.529-6.145,0.612-9.221,0.915c-0.442,0.044-0.872,0.215-1.307,0.327C92.404,77.134,91.536,77.134,90.669,77.134z"/>
	<path fill="#26266B" d="M232.989,40.512c0.716-1.744,1.331-3.269,1.965-4.787c2.483-5.939,4.986-11.87,7.438-17.821
		c0.328-0.797,0.749-1.04,1.599-1.036c7.943,0.035,15.888,0,23.831,0.046c1.022,0.006,2.105,0.197,3.051,0.572
		c2.97,1.178,3.467,3.575,2.85,6.448c-0.785,3.66-3.239,5.752-6.941,6.316c-0.825,0.125-1.086,0.476-0.993,1.303
		c0.298,2.649,0.506,5.308,0.814,7.955c0.091,0.783-0.117,1.025-0.894,1.02c-3.936-0.025-7.872-0.025-11.807-0.002
		c-0.79,0.005-1.027-0.298-1.098-1.078c-0.235-2.616-0.546-5.226-0.886-7.831c-0.046-0.355-0.419-0.667-0.64-0.998
		c-0.368,0.273-0.91,0.468-1.075,0.833c-1.248,2.755-2.41,5.549-3.635,8.313c-0.134,0.303-0.504,0.713-0.767,0.716
		C241.619,40.526,237.436,40.512,232.989,40.512z M252.314,26.691c0.702,0,1.093,0,1.484,0c2.818,0,5.636-0.001,8.454,0.002
		c1.877,0.002,2.716-0.592,3.348-2.375c0.561-1.585-0.218-3.019-1.881-3.104c-2.809-0.143-5.628-0.122-8.441-0.131
		c-0.278-0.001-0.712,0.193-0.81,0.413C253.745,23.129,253.09,24.791,252.314,26.691z"/>
	<path fill="#26266B" d="M288.815,40.516c-3.105,0-6.211,0.059-9.314-0.029c-1.2-0.034-2.438-0.259-3.576-0.643
		c-2.127-0.718-3.268-3.058-2.434-5.185c1.507-3.848,3.306-7.584,4.754-11.451c1.706-4.556,5.381-6.056,9.666-6.258
		c5.258-0.249,10.538-0.109,15.807-0.032c1.831,0.027,3.629,0.495,5.25,1.426c2.115,1.215,2.792,3.037,1.866,5.468
		c-0.999,2.619-2.142,5.185-3.252,7.761c-0.712,1.653-1.492,3.276-2.219,4.923c-0.818,1.854-2.269,3.007-4.177,3.436
		c-1.561,0.351-3.186,0.505-4.79,0.562C293.872,40.582,291.343,40.516,288.815,40.516z M291.843,35.7
		c0.793,0,1.589-0.043,2.379,0.009c1.975,0.128,3.334-0.781,4.126-2.509c1.183-2.579,2.343-5.171,3.397-7.804
		c0.797-1.989-0.222-3.336-2.37-3.34c-1.766-0.003-3.533-0.011-5.3,0.002c-1.785,0.014-3.328,0.726-4.166,2.256
		c-1.361,2.486-2.598,5.057-3.662,7.684c-0.889,2.194,0.374,3.725,2.784,3.704C289.968,35.694,290.905,35.701,291.843,35.7z"/>
	<path fill="#26266B" d="M219.007,16.975c-1.064,2.313-2.066,4.495-3.073,6.675c-1.269,2.743-2.491,5.51-3.83,8.219
		c-1.26,2.548,0.16,3.923,2.489,4.177c1.534,0.167,3.11,0.125,4.653,0.001c2.988-0.242,4.654-2.227,5.766-4.762
		c1.98-4.516,3.895-9.06,5.863-13.581c0.139-0.32,0.494-0.77,0.758-0.777c2.477-0.06,4.956-0.035,7.642-0.035
		c-0.648,1.482-1.214,2.785-1.787,4.086c-1.797,4.084-3.599,8.167-5.394,12.252c-1.452,3.305-4.121,5.173-7.412,6.319
		c-1.958,0.682-3.961,0.998-6.042,0.98c-4.839-0.04-9.679,0.029-14.517-0.042c-1.202-0.017-2.45-0.253-3.587-0.646
		c-2.487-0.86-3.574-3.408-2.581-6.149c0.942-2.601,2.062-5.138,3.143-7.688c1.179-2.784,2.379-5.562,3.633-8.313
		c0.163-0.357,0.704-0.764,1.074-0.769c4.188-0.054,8.378-0.035,12.567-0.032C218.511,16.891,218.651,16.927,219.007,16.975z"/>
	<path fill="#26266B" d="M201.451,16.889c-0.664,1.477-1.152,2.713-1.785,3.869c-0.155,0.283-0.777,0.433-1.186,0.436
		c-4.551,0.03-9.101,0.005-13.652,0.023c-3.314,0.014-5.501,1.87-7.119,4.535c-0.519,0.856,0.144,0.94,0.804,0.939
		c5.923-0.005,11.846-0.002,17.769-0.002c0.38,0,0.758,0,1.316,0c-0.595,1.295-1.042,2.424-1.64,3.466
		c-0.164,0.285-0.781,0.433-1.191,0.435c-5.851,0.027-11.701,0.018-17.552,0.018c-1.907,0-2.838,0.97-2.862,2.981
		c-0.02,1.636,1.233,2.796,3.037,2.797c4.948,0.002,9.896,0,14.844-0.001c0.388,0,0.775,0,1.395,0
		c-0.551,1.418-0.979,2.664-1.545,3.845c-0.11,0.229-0.759,0.274-1.16,0.275c-6.862,0.016-13.724,0.011-20.586,0.011
		c-1.697,0-3.405,0.116-5.089-0.039c-1.142-0.105-2.375-0.376-3.342-0.952c-1.557-0.928-1.971-3.116-1.179-5.407
		c0.658-1.902,1.386-3.79,2.232-5.616c1.623-3.505,3.659-6.718,6.969-8.922c2.615-1.741,5.497-2.666,8.629-2.68
		c7.115-0.033,14.23-0.01,21.344-0.01C200.321,16.889,200.744,16.889,201.451,16.889z"/>
	<path fill="#F15C22" d="M313.538,48.621c-0.835,1.728-1.557,3.205-2.263,4.689c-2.107,4.433-4.214,8.866-6.305,13.307
		c-0.701,1.489-1.384,2.988-2.017,4.506c-0.236,0.567-0.561,0.736-1.145,0.718c-1.263-0.04-2.528-0.025-3.792-0.007
		c-0.57,0.008-0.931-0.081-1.007-0.79c-0.172-1.599-0.492-3.183-0.669-4.782c-0.213-1.927-0.328-3.866-0.509-5.798
		c-0.124-1.32-0.264-2.639-0.456-3.95c-0.034-0.235-0.353-0.429-0.539-0.642c-0.208,0.197-0.507,0.355-0.609,0.597
		c-0.777,1.84-1.505,3.702-2.268,5.547c-1.283,3.104-2.57,6.207-3.895,9.293c-0.104,0.242-0.515,0.484-0.793,0.497
		c-1.333,0.064-2.672,0.028-4.007,0.071c-0.824,0.026-1.158-0.364-1.256-1.14c-0.415-3.27-0.828-6.541-1.298-9.803
		c-0.515-3.567-1.09-7.125-1.643-10.685c-0.253-1.629-0.26-1.628,1.365-1.628c0.506,0,1.011,0,1.517,0
		c1.687,0.001,1.867,0.175,2.023,1.84c0.291,3.108,0.592,6.217,0.897,9.324c0.119,1.214,0.209,2.435,0.428,3.631
		c0.076,0.417,0.501,0.77,0.767,1.153c0.304-0.251,0.747-0.441,0.889-0.763c0.963-2.187,1.852-4.406,2.783-6.607
		c0.892-2.108,2.026-4.142,2.648-6.325c0.605-2.122,1.848-2.53,3.714-2.259c0.318,0.046,0.649,0.006,0.974,0.006
		c1.742,0.001,1.772-0.002,1.961,1.762c0.21,1.965,0.34,3.938,0.54,5.904c0.246,2.421,0.5,4.842,0.827,7.253
		c0.05,0.368,0.513,0.681,0.785,1.02c0.303-0.248,0.743-0.433,0.89-0.753c1.872-4.064,3.704-8.145,5.535-12.227
		c0.114-0.256,0.091-0.573,0.198-0.834c0.868-2.128,0.873-2.126,3.23-2.126C311.81,48.621,312.586,48.621,313.538,48.621z"/>
	<path fill="#F15C22" d="M226.308,48.622c-0.272,1.698-0.488,3.111-0.73,4.52c-0.218,1.265-0.501,2.519-0.679,3.789
		c-0.064,0.451,0.099,0.934,0.159,1.403c0.43-0.177,0.967-0.246,1.275-0.548c2.864-2.804,5.672-5.666,8.545-8.46
		c0.388-0.378,1.037-0.634,1.585-0.672c1.35-0.095,2.711-0.031,4.068-0.031c0.043,0.097,0.087,0.194,0.129,0.291
		c-0.951,0.92-1.931,1.812-2.848,2.767c-2.443,2.545-4.833,5.142-7.299,7.662c-0.872,0.891-0.189,1.542,0.192,2.194
		c1.553,2.653,3.163,5.272,4.755,7.901c0.42,0.694,0.85,1.382,1.391,2.263c-0.542,0.078-0.873,0.159-1.204,0.166
		c-0.903,0.019-1.824-0.109-2.705,0.032c-1.525,0.243-2.225-0.568-2.876-1.758c-1.478-2.699-3.04-5.353-4.61-8.001
		c-0.169-0.285-0.616-0.405-0.934-0.601c-0.181,0.309-0.461,0.597-0.527,0.929c-0.423,2.132-0.805,4.274-1.19,6.415
		c-0.14,0.774-0.182,1.575-0.415,2.317c-0.091,0.29-0.571,0.612-0.9,0.643c-0.931,0.087-1.876,0.011-2.815,0.037
		c-0.733,0.02-0.835-0.357-0.731-0.967c0.397-2.329,0.747-4.666,1.17-6.99c0.479-2.631,1.051-5.246,1.517-7.878
		c0.361-2.041,0.674-4.094,0.898-6.154c0.098-0.9,0.384-1.312,1.318-1.275C223.984,48.656,225.125,48.622,226.308,48.622z"/>
	<path fill="#F15C22" d="M328.81,71.825c-1.583,0-3.022,0.034-4.457-0.032c-0.254-0.012-0.637-0.407-0.706-0.688
		c-0.315-1.281-0.491-2.596-0.827-3.871c-0.086-0.324-0.568-0.768-0.876-0.774c-2.816-0.06-5.635-0.076-8.45,0.005
		c-0.442,0.013-1.017,0.48-1.272,0.897c-0.655,1.067-1.157,2.228-1.737,3.343c-0.393,0.755-0.938,1.21-1.888,1.143
		c-1.095-0.078-2.201-0.018-3.497-0.018c0.743-1.37,1.332-2.497,1.96-3.602c0.972-1.709,1.965-3.406,2.962-5.101
		c2.155-3.667,4.317-7.329,6.477-10.992c0.581-0.986,1.125-1.999,1.765-2.944c0.193-0.284,0.647-0.515,1-0.542
		c0.933-0.075,1.883,0.045,2.813-0.047c0.875-0.087,1.291,0.341,1.46,1.066c0.465,1.985,0.86,3.988,1.323,5.974
		c0.428,1.838,0.918,3.66,1.362,5.495c0.511,2.116,0.994,4.239,1.503,6.357C328.057,68.873,328.414,70.25,328.81,71.825z
		 M318.486,62.388c0.612,0,1.223,0.002,1.834-0.001c1.291-0.006,1.511-0.269,1.228-1.548c-0.391-1.769-0.767-3.544-1.233-5.294
		c-0.1-0.375-0.511-0.773-0.877-0.923c-0.157-0.064-0.657,0.422-0.839,0.748c-1.031,1.839-2.012,3.704-3.01,5.561
		c-0.477,0.888-0.156,1.442,0.848,1.454C317.119,62.395,317.802,62.388,318.486,62.388z"/>
	<path fill="#F15C22" d="M325.909,48.612c1.71,0,3.178-0.049,4.636,0.044c0.273,0.017,0.569,0.576,0.754,0.936
		c1.098,2.14,2.161,4.297,3.245,6.444c0.468,0.925,0.86,1.044,1.498,0.29c1.641-1.941,3.219-3.934,4.803-5.921
		c0.87-1.092,1.723-2.102,3.373-1.836c0.859,0.138,1.758,0.025,2.943,0.025c-0.862,1.135-1.475,1.994-2.143,2.808
		c-0.887,1.082-1.845,2.105-2.722,3.194c-1.389,1.724-2.736,3.481-4.101,5.224c-0.089,0.114-0.155,0.259-0.268,0.337
		c-1.425,0.986-1.348,2.596-1.63,4.027c-0.457,2.314-0.789,4.652-1.246,6.967c-0.053,0.271-0.542,0.615-0.856,0.646
		c-0.894,0.087-1.804,0.002-2.706,0.04c-0.731,0.031-0.998-0.284-0.874-0.972c0.352-1.932,0.717-3.862,1.068-5.794
		c0.378-2.08,0.567-4.047-0.583-6.087C329.259,55.712,327.719,52.27,325.909,48.612z"/>
	<path fill="#F15C22" d="M242.869,53.282c0.249-1.415,0.448-2.718,0.729-4.003c0.055-0.253,0.395-0.484,0.656-0.635
		c0.163-0.094,0.423-0.023,0.639-0.023c10.142,0,20.286,0,30.428,0c0.389,0,0.779,0,1.406,0c-0.282,1.503-0.48,2.859-0.831,4.175
		c-0.072,0.27-0.708,0.542-1.091,0.551c-2.056,0.054-4.114,0.026-6.172,0.026c-8.121,0-16.243,0.002-24.365-0.004
		C243.815,53.369,243.361,53.315,242.869,53.282z"/>
	<path fill="#F15C22" d="M246.85,71.869c-2.094-0.001-4.189-0.029-6.283,0.014c-0.901,0.018-1.121-0.28-0.94-1.156
		c0.415-2.025,0.743-4.068,1.102-6.104c0.305-1.725,0.587-3.455,0.915-5.176c0.142-0.745,0.538-1.113,1.417-1.102
		c4.152,0.053,8.306,0.021,12.458,0.025c1.126,0.001,1.252,0.183,1.022,1.273c-0.14,0.663-0.26,1.335-0.323,2.009
		c-0.076,0.824-0.431,1.227-1.306,1.217c-2.528-0.028-5.056-0.01-7.584-0.01c-1.695,0.001-1.697,0.001-2.097,1.576
		c-0.141,0.554-0.279,1.108-0.395,1.667c-0.167,0.806-0.027,1.284,1.001,1.26c2.599-0.06,5.2-0.022,7.8-0.02
		c1.398,0.002,1.629,0.307,1.279,1.684c-0.088,0.346-0.252,0.679-0.298,1.028c-0.241,1.812-0.232,1.814-2.026,1.814
		C250.678,71.87,248.764,71.87,246.85,71.869z"/>
	<path fill="#F15C22" d="M275.471,58.522c-0.192,1.364-0.333,2.645-0.591,3.9c-0.041,0.201-0.607,0.414-0.933,0.418
		c-2.635,0.034-5.27,0.019-7.905,0.019c-1.673,0-1.763,0.078-2.019,1.76c-0.065,0.426-0.064,0.87-0.184,1.28
		c-0.405,1.386-0.376,1.441,1.104,1.442c2.599,0.001,5.199,0.027,7.797-0.014c0.86-0.013,1.204,0.269,1.056,1.13
		c-0.163,0.951-0.257,1.917-0.477,2.854c-0.054,0.231-0.483,0.531-0.742,0.533c-4.512,0.033-9.024,0.023-13.537,0.024
		c-0.529,0-0.795-0.105-0.619-0.768c0.29-1.097,0.461-2.226,0.668-3.344c0.538-2.915,1.052-5.836,1.631-8.744
		c0.051-0.255,0.5-0.613,0.767-0.615c4.476-0.036,8.952-0.023,13.428-0.015C275.051,58.382,275.187,58.448,275.471,58.522z"/>
</g>
</svg>
