<?xml version="1.0" encoding="utf-8"?>
<!-- Generator: Adobe Illustrator 17.0.0, SVG Export Plug-In . SVG Version: 6.00 Build 0)  -->
<!DOCTYPE svg PUBLIC "-//W3C//DTD SVG 1.1//EN" "http://www.w3.org/Graphics/SVG/1.1/DTD/svg11.dtd">
<svg version="1.1" id="Layer_1" xmlns="http://www.w3.org/2000/svg" xmlns:xlink="http://www.w3.org/1999/xlink" x="0px" y="0px"
	 width="200px" height="52px" viewBox="0 0 200 52" enable-background="new 0 0 200 52" xml:space="preserve">
<text transform="matrix(0.9116 0 0 1 22.9361 47.8412)" fill="#FFFFFF" font-family="'CenturyGothic'" font-size="5.9454" letter-spacing="3.291">MOTORS PHILIPPINES INC.</text>
<circle fill="#ED1C24" cx="125.781" cy="32.548" r="4.33"/>
<polyline fill="#ED1C24" points="179,20.539 177.017,18.177 167.848,25.87 169.832,28.233 179,20.539 "/>
<path fill="#ED1C24" d="M172.465,14.625c1.741-2.306-0.587-7.158-4.317-12.625c0,0,1.057,1.709,1.569,4.078
	c0.402,1.846,1.309,5.198-1.074,7.159c-3.179,2.616-4.366,3.56-5.679,4.518c-0.723-0.567-2.057-1.679-2.057-1.679l1.504,4.541
	l3.136,2.612l-0.277-2.248C165.271,20.98,170.903,16.699,172.465,14.625z"/>
<path fill="#ED1C24" d="M166.056,21.58l0.31,2.455l0.968,1.169l9.152-7.681c-0.243-0.909-0.458-2.107-1.016-3.982
	C170.941,17.494,166.056,21.58,166.056,21.58z"/>
<rect x="55.071" y="24.417" fill="#FFFFFF" width="3.486" height="16.269"/>
<path fill="#FFFFFF" d="M64.367,27.903v4.648c0,1.283,0.455,2.378,1.363,3.286c0.907,0.908,2.003,1.362,3.286,1.362v3.486
	c-2.251,0-4.17-0.793-5.755-2.379c-1.586-1.585-2.378-3.504-2.378-5.756V19.769h3.485v4.648h4.648v3.486H64.367z"/>
<path fill="#FFFFFF" d="M75.988,24.417h6.973v3.486h-6.446c-1.235,0.012-1.834,0.254-1.798,0.726c0,0.702,1.29,1.373,3.868,2.015
	c1.889,0.472,3.205,1.06,3.949,1.761c0.744,0.702,1.116,1.714,1.116,3.032c0,1.732-0.502,3.039-1.507,3.923
	c-1.005,0.884-2.475,1.325-4.412,1.325H71.34L71.322,37.2h6.319c1.524-0.061,2.318-0.46,2.378-1.199
	c0-0.629-0.496-1.071-1.489-1.325c-3.353-0.836-5.389-1.667-6.11-2.497c-0.72-0.828-1.08-1.83-1.08-3.004
	C71.34,25.979,72.888,24.393,75.988,24.417z"/>
<path fill="#FFFFFF" d="M88.77,32.551c0,1.283,0.455,2.378,1.362,3.286c0.908,0.908,2.004,1.362,3.287,1.362
	c1.283,0,2.378-0.454,3.287-1.362c0.908-0.908,1.362-2.003,1.362-3.286v-8.134h3.486v8.134c0,2.251-0.793,4.17-2.378,5.756
	c-1.586,1.586-3.505,2.379-5.757,2.379c-2.251,0-4.17-0.793-5.756-2.379c-1.586-1.585-2.378-3.504-2.378-5.756v-8.134h3.485V32.551z
	"/>
<path fill="#FFFFFF" d="M107.363,31.897l6.301-7.481h4.158l-7.771,9.605l7.771,6.664h-4.649l-5.81-4.648v4.648h-3.486V19.769h3.486
	V31.897z"/>
<path fill="#FFFFFF" d="M125.74,40.686c-2.251,0-4.17-0.793-5.756-2.379c-1.586-1.585-2.378-3.504-2.378-5.756
	c0-2.252,0.792-4.17,2.378-5.756c1.585-1.586,3.505-2.378,5.756-2.378c2.252,0,4.171,0.793,5.757,2.378
	c1.585,1.586,2.377,3.504,2.377,5.756c0,2.251-0.792,4.17-2.377,5.756C129.911,39.893,127.992,40.686,125.74,40.686z
	 M129.026,35.838c0.908-0.908,1.362-2.003,1.362-3.286c0-1.284-0.454-2.379-1.362-3.287c-0.908-0.907-2.004-1.361-3.287-1.361
	c-1.283,0-2.378,0.454-3.286,1.361c-0.908,0.908-1.363,2.003-1.363,3.287c0,1.283,0.455,2.378,1.363,3.286
	c0.908,0.908,2.003,1.362,3.286,1.362C127.023,37.2,128.119,36.745,129.026,35.838z"/>
<path fill="#FFFFFF" d="M140.157,24.417h6.973v3.486h-6.446c-1.235,0.012-1.834,0.254-1.798,0.726c0,0.702,1.289,1.373,3.866,2.015
	c1.889,0.472,3.205,1.06,3.95,1.761c0.745,0.702,1.116,1.714,1.116,3.032c0,1.732-0.503,3.039-1.506,3.923
	c-1.006,0.884-2.476,1.325-4.413,1.325h-6.39L135.49,37.2h6.319c1.526-0.061,2.318-0.46,2.379-1.199
	c0-0.629-0.497-1.071-1.489-1.325c-3.353-0.836-5.39-1.667-6.11-2.497c-0.721-0.828-1.08-1.83-1.08-3.004
	C135.509,25.979,137.058,24.393,140.157,24.417z"/>
<path fill="#FFFFFF" d="M152.94,32.551v8.134h-3.487V19.769h3.487v6.082c1.344-0.956,2.894-1.434,4.649-1.434
	c2.251,0,4.169,0.793,5.755,2.378c1.586,1.586,2.378,3.504,2.378,5.756v8.134h-3.487v-8.134c0-1.284-0.453-2.379-1.36-3.287
	c-0.908-0.907-2.003-1.361-3.287-1.361c-1.284,0-2.379,0.454-3.287,1.361C153.394,30.172,152.94,31.268,152.94,32.551z"/>
<path fill="#FFFFFF" d="M171.533,29.227v11.458h-3.487V29.227H171.533z"/>
<path fill="#FFFFFF" d="M50.369,26.795c-1.587-1.586-3.505-2.378-5.756-2.378c-2.252,0-4.171,0.793-5.757,2.378
	c-0.229,0.23-0.441,0.466-0.635,0.709c-0.194-0.242-0.405-0.479-0.635-0.709c-1.586-1.586-3.505-2.378-5.756-2.378
	c-1.752,0-3.3,0.487-4.648,1.447v-1.692h-3.487v8.379v4.686v3.449h3.487v-3.449v-4.686c0-1.284,0.453-2.379,1.362-3.287
	c0.908-0.907,2.003-1.361,3.287-1.361c1.283,0,2.378,0.454,3.286,1.361c0.907,0.908,1.362,2.003,1.362,3.287v8.134h3.486v-8.134
	c0-1.284,0.454-2.379,1.362-3.287c0.908-0.907,2.004-1.361,3.287-1.361c1.283,0,2.379,0.454,3.286,1.361
	c0.908,0.908,1.363,2.003,1.363,3.287v8.134h3.485v-8.134C52.746,30.299,51.954,28.381,50.369,26.795z"/>
</svg>
