<?xml version="1.0" encoding="utf-8"?>
<!-- Generator: Adobe Illustrator 17.0.0, SVG Export Plug-In . SVG Version: 6.00 Build 0)  -->
<!DOCTYPE svg PUBLIC "-//W3C//DTD SVG 1.1//EN" "http://www.w3.org/Graphics/SVG/1.1/DTD/svg11.dtd">
<svg version="1.1" id="Layer_1" xmlns="http://www.w3.org/2000/svg" xmlns:xlink="http://www.w3.org/1999/xlink" x="0px" y="0px"
	 width="380px" height="80px" viewBox="0 0 380 80" enable-background="new 0 0 380 80" xml:space="preserve">
<g>
	<g>
		<path fill="#004689" d="M146.473,63.989l16.325-24.388l-0.131,24.366l14.585,0.078l0.271-50.335l-2.918-0.085
			c0,0-4.155-0.057-4.979-0.066c-3.602,0.031-6.782,1.831-8.707,4.577c-0.005,0.014-0.015,0.024-0.02,0.037
			c-2.279,3.184-15.144,21.974-15.144,21.974l0.143-26.675l-4.854,0.044c0,0-0.55-0.033-1.378-0.033
			c-0.341,0.012-0.71,0.021-1.106,0.019c-0.717,0.023-1.517,0.083-2.308,0.199c-2.2,0.426-4.159,1.524-5.654,3.078
			c-0.118,0.123-0.234,0.239-0.36,0.355c-1.955,2.108-3.402,4.486-3.402,4.486L98.148,63.632l18.377,0.055l16.533-24.034
			l-0.13,24.223L146.473,63.989z"/>
		<path fill="#004689" d="M56.654,39.421c-0.393-0.303-0.798-0.536-1.24-0.841l-14.905-8.654c-0.345-0.204-0.6-0.587-0.597-1.015
			c0.003-0.642,0.524-1.173,1.164-1.169l23.966,0.114l-9.664-14.803c0,0-16.241-0.09-16.745-0.087
			c-1.11,0.088-1.165,0.069-2.414,0.223c-2.166,0.376-5.146,1.222-7.645,3.308c-0.277,0.204-0.549,0.42-0.809,0.64
			c-2.856,2.728-4.647,6.564-4.67,10.825c-0.025,4.705,3.056,9.409,6.064,11.333c0,0,0,0.002,0.003,0.003
			c0.922,0.66,1.112,0.781,1.161,0.808l10.768,6.241c0.417,0.18,0.697,0.586,0.695,1.063c-0.003,0.64-0.526,1.172-1.17,1.169
			L21.828,48.45L11.747,63.186l34.416,0.126c0.606-0.027,0.923-0.054,1.806-0.079c7.639-0.184,13.844-5.884,13.885-13.524
			C61.877,45.288,59.361,41.18,56.654,39.421z"/>
		<path fill="#004689" d="M99.927,17.316c0,0,1.182-2.01,2.93-3.304c1.099-0.814,3.271-0.803,3.271-0.803l15.521,0.083
			c0,0-0.681,0.485-1.575,1.577c-0.616,0.747-1.555,2.108-1.555,2.108L81.782,70.966l-18.496-0.099L99.927,17.316z"/>
		<polygon fill="#ED1B2F" points="61.933,13.092 78.456,38.047 61.209,63.45 77.36,63.537 94.602,38.133 77.921,13.177 		"/>
	</g>
	<g>
		<g>
			<defs>
				<circle id="SVGID_1_" cx="-35.724" cy="41.702" r="35.002"/>
			</defs>
			<clipPath id="SVGID_2_">
				<use xlink:href="#SVGID_1_"  overflow="visible"/>
			</clipPath>
			<g clip-path="url(#SVGID_2_)">
				<g>
					<g>
						<defs>
							
								<rect id="SVGID_3_" x="-75.794" y="3.841" transform="matrix(1 0.0053 -0.0053 1 0.2264 0.1975)" width="77.286" height="77.969"/>
						</defs>
						<clipPath id="SVGID_4_">
							<use xlink:href="#SVGID_3_"  overflow="visible"/>
						</clipPath>
						<g transform="matrix(1 -4.656613e-10 0 1 -3.814697e-06 0)" clip-path="url(#SVGID_4_)">
							
								<image overflow="visible" enable-background="new    " width="2083" height="2101" xlink:href="680CAD29825003E3.jpg"  transform="matrix(0.0371 1.984410e-04 -1.984410e-04 0.0371 -75.5807 3.6303)">
							</image>
						</g>
					</g>
				</g>
			</g>
		</g>
	</g>
</g>
</svg>
